<?xml version="1.0" encoding="UTF-8"?>
<svg xmlns="http://www.w3.org/2000/svg" xmlns:xlink="http://www.w3.org/1999/xlink" width="12px" height="12px" viewBox="0 0 12 12" version="1.1">
<g id="surface1">
<path style=" stroke:none;fill-rule:evenodd;fill:rgb(0.784314%,34.117648%,47.843137%);fill-opacity:1;" d="M 8.449219 6.328125 L 6.328125 8.453125 C 6.238281 8.542969 6.117188 8.570312 6 8.546875 C 5.882812 8.570312 5.761719 8.542969 5.671875 8.453125 L 3.550781 6.328125 C 3.402344 6.183594 3.402344 5.949219 3.550781 5.796875 C 3.695312 5.652344 3.933594 5.652344 4.078125 5.796875 L 5.625 7.347656 L 5.625 3.375 C 5.625 3.167969 5.792969 3 6 3 C 6.207031 3 6.375 3.167969 6.375 3.375 L 6.375 7.347656 L 7.921875 5.796875 C 8.066406 5.652344 8.304688 5.652344 8.449219 5.796875 C 8.597656 5.949219 8.597656 6.183594 8.449219 6.328125 Z M 6 0 C 2.6875 0 0 2.683594 0 6 C 0 9.316406 2.6875 12 6 12 C 9.3125 12 12 9.316406 12 6 C 12 2.683594 9.3125 0 6 0 Z M 6 0 "/>
</g>
</svg>
