<svg width="134" height="35" viewBox="0 0 134 35" fill="none" xmlns="http://www.w3.org/2000/svg">
<path d="M26.4254 25.4773C27.0324 23.9394 27.308 22.2461 27.252 20.3974C27.1453 16.8697 25.932 13.9398 23.6123 11.6075C25.4843 5.19743 31.4708 0.496094 38.5461 0.496094C43.1725 0.496094 47.3255 2.518 50.173 5.7034C50.7349 6.33007 51.2418 7.00167 51.696 7.71348C53.2023 10.0807 54.0869 12.8688 54.0869 15.8673C54.0869 17.8443 54.6703 19.6723 55.6243 21.2615C57.5011 24.3854 60.9106 26.509 64.846 26.509C70.7778 26.509 75.605 21.7344 75.605 15.8673C75.605 10.0002 70.7778 5.22571 64.846 5.22571C60.9106 5.22571 57.5011 7.3493 55.6243 10.4732C55.0696 8.754 54.2495 7.15066 53.219 5.7034C56.0666 2.518 60.2172 0.496094 64.846 0.496094C73.4149 0.496094 80.3868 7.39187 80.3868 15.8673C80.3868 24.3428 73.4149 31.2386 64.846 31.2386C60.2172 31.2386 56.0666 29.219 53.219 26.0313C52.6572 25.4046 52.1479 24.733 51.696 24.0212C50.1898 21.654 49.3051 18.8659 49.3051 15.8673C49.3051 13.8904 48.7218 12.0624 47.7678 10.4732C45.8909 7.3493 42.4791 5.22571 38.5461 5.22571C32.6143 5.22571 27.7871 10.0002 27.7871 15.8673C27.7871 21.7344 32.6143 26.509 38.5461 26.509C42.4791 26.509 45.8909 24.3854 47.7678 21.2615C48.3225 22.9807 49.1426 24.584 50.173 26.0313C47.3255 29.219 43.1725 31.2386 38.5461 31.2386C33.6504 31.2386 29.2761 28.9877 26.4254 25.4773Z" fill="#335EEA"/>
<path d="M22.4866 4.76751H14.1079C13.4597 4.76751 12.9004 5.16876 12.7066 5.77282L11.4195 9.7835C11.6831 9.75737 11.9353 9.73778 12.176 9.72471C12.4168 9.71165 12.6382 9.70512 12.8405 9.70512C16.341 9.70512 19.2438 10.6979 21.5489 12.6834C23.8693 14.6558 25.0798 17.1834 25.1805 20.2661C25.2847 23.4534 24.0947 26.0789 21.6107 28.1428C19.1267 30.2066 15.9478 31.2386 12.0739 31.2386C7.29774 31.2386 3.47137 29.3576 0.594727 25.5956L4.60653 22.6761C5.79517 24.2959 6.976 25.4388 8.14903 26.105C9.32164 26.7581 10.7403 27.0847 12.4049 27.0847C14.583 27.0847 16.3901 26.4447 17.8262 25.1645C19.2611 23.8452 19.9478 22.2451 19.8863 20.3641C19.8232 18.4308 19.0403 16.8503 17.5378 15.6224C16.0339 14.3553 14.1852 13.7218 11.9916 13.7218C8.2829 13.7218 5.60511 14.6166 3.95825 16.4062L8.44598 2.54435C8.84344 1.31669 9.98548 0.496094 11.2966 0.496094H23.9977L22.4866 4.76751Z" fill="#335EEA"/>
<path fill-rule="evenodd" clip-rule="evenodd" d="M102.853 17.2256C100.862 17.2256 99.3654 17.9432 98.3618 19.3784V17.4213H96.4801V34.4966H98.3618V27.6714C99.3821 29.1229 100.837 29.8486 102.727 29.8486C104.617 29.8486 106.123 29.237 107.244 28.0139C108.364 26.807 108.925 25.3148 108.925 23.5371C108.925 21.7594 108.364 20.2672 107.244 19.0603C106.123 17.8372 104.659 17.2256 102.853 17.2256ZM92.8284 27.6961C91.8248 29.1313 90.3278 29.8489 88.3373 29.8489C86.5309 29.8489 85.0589 29.2373 83.9215 28.0142C82.8176 26.8073 82.2656 25.3151 82.2656 23.5374C82.2656 21.7597 82.8176 20.2675 83.9215 19.0606C85.0589 17.8375 86.5727 17.2259 88.4628 17.2259C90.3529 17.2259 91.8081 17.9516 92.8284 19.4031V17.4216H94.7101V29.6532H92.8284V27.6961ZM88.5883 28.1849C89.9431 28.1849 91.0136 27.7282 91.7998 26.8149C92.5525 25.9505 92.9288 24.8579 92.9288 23.5368C92.9288 22.2158 92.5525 21.1231 91.7998 20.2588C91.0136 19.3455 89.9431 18.8888 88.5883 18.8888C87.2502 18.8888 86.163 19.3455 85.3266 20.2588C84.5405 21.1231 84.1474 22.2158 84.1474 23.5368C84.1474 24.8579 84.5405 25.9505 85.3266 26.8149C86.163 27.7282 87.2502 28.1849 88.5883 28.1849ZM102.602 18.8888C101.247 18.8888 100.176 19.3455 99.3903 20.2588C98.6376 21.1231 98.2613 22.2158 98.2613 23.5368C98.2613 24.8579 98.6376 25.9505 99.3903 26.8149C100.176 27.7282 101.247 28.1849 102.602 28.1849C103.94 28.1849 105.027 27.7282 105.863 26.8149C106.65 25.9505 107.043 24.8579 107.043 23.5368C107.043 22.2158 106.65 21.1231 105.863 20.2588C105.027 19.3455 103.94 18.8888 102.602 18.8888ZM116.264 17.2256C114.274 17.2256 112.777 17.9432 111.773 19.3784V17.4213H109.891V34.4966H111.773V27.6714C112.793 29.1229 114.249 29.8486 116.139 29.8486C118.029 29.8486 119.534 29.237 120.655 28.0139C121.776 26.807 122.336 25.3148 122.336 23.5371C122.336 21.7594 121.776 20.2672 120.655 19.0603C119.534 17.8372 118.071 17.2256 116.264 17.2256ZM116.013 18.8888C114.658 18.8888 113.588 19.3455 112.802 20.2588C112.049 21.1231 111.673 22.2158 111.673 23.5368C111.673 24.8579 112.049 25.9505 112.802 26.8149C113.588 27.7282 114.658 28.1849 116.013 28.1849C117.351 28.1849 118.438 27.7282 119.275 26.8149C120.061 25.9505 120.454 24.8579 120.454 23.5368C120.454 22.2158 120.061 21.1231 119.275 20.2588C118.438 19.3455 117.351 18.8888 116.013 18.8888ZM128.276 18.7912C130.208 18.7912 131.258 19.4273 131.425 20.6994H133.332C133.215 19.7045 132.788 18.9054 132.052 18.302C131.166 17.5844 129.953 17.2256 128.414 17.2256C126.792 17.2256 125.567 17.5314 124.739 18.143C123.911 18.7545 123.497 19.6148 123.497 20.7238C123.497 21.474 123.702 22.0612 124.111 22.4852C124.521 22.9092 125.036 23.2435 125.654 23.4882C126.273 23.7328 126.946 23.9244 127.674 24.0631C128.402 24.2017 129.075 24.3566 129.694 24.5279C130.313 24.6991 130.827 24.9193 131.237 25.1884C131.647 25.4575 131.852 25.8448 131.852 26.3504C131.852 27.1006 131.45 27.6306 130.647 27.9405C130.296 28.071 129.936 28.1607 129.568 28.2096C129.2 28.2585 128.803 28.283 128.377 28.283C127.95 28.283 127.519 28.2177 127.084 28.0873C125.897 27.6959 125.245 26.9375 125.127 25.8122H123.171C123.237 26.9701 123.722 27.9079 124.626 28.6255C125.613 29.4409 126.942 29.8486 128.615 29.8486C130.187 29.8486 131.433 29.5347 132.353 28.9068C133.273 28.2789 133.733 27.3697 133.733 26.1791C133.733 25.4126 133.528 24.8092 133.119 24.3689C132.709 23.9285 132.194 23.582 131.576 23.3292C130.957 23.0764 130.283 22.8807 129.556 22.742C128.828 22.6034 128.155 22.4526 127.536 22.2895C126.917 22.1264 126.403 21.9185 125.993 21.6657C125.583 21.4129 125.378 21.0419 125.378 20.5526C125.378 19.3783 126.344 18.7912 128.276 18.7912Z" fill="#939393"/>
</svg>
