<?xml version="1.0" encoding="UTF-8"?>
<svg id="Layer_1" data-name="Layer 1" xmlns="http://www.w3.org/2000/svg" version="1.1" viewBox="0 0 186.965 11.73">
  <defs>
    <style>
      .cls-1 {
        fill: #4e4e4f;
      }

      .cls-1, .cls-2 {
        stroke-width: 0px;
      }

      .cls-2 {
        fill: #c00;
      }
    </style>
  </defs>
  <g>
    <g>
      <path class="cls-1" d="M69.684.083h3.434c1.653,0,2.925,1.271,2.925,2.861s-1.272,2.861-2.925,2.861h-2.289v3.179h-1.145V.082h0ZM70.829,1.164v3.561h2.289c1.018,0,1.78-.763,1.78-1.78s-.763-1.78-1.78-1.78h-2.289Z"/>
      <path class="cls-1" d="M78.155,2.881v.827s.636-.954,1.971-.954h.254v1.145s-.191-.064-.445-.064c-1.018,0-1.78.763-1.78,1.908v3.243h-1.081V2.882h1.081Z"/>
      <path class="cls-1" d="M83.828,2.753c1.717,0,3.116,1.399,3.116,3.179s-1.399,3.18-3.116,3.18-3.115-1.399-3.115-3.18,1.399-3.179,3.115-3.179ZM83.828,8.095c1.145,0,2.035-.89,2.035-2.162s-.89-2.162-2.035-2.162-2.035.89-2.035,2.162.89,2.162,2.035,2.162Z"/>
      <path class="cls-1" d="M88.102,2.881h1.081v.827s.509-.954,1.717-.954c1.462,0,1.971,1.081,1.971,1.081,0,0,.636-1.081,2.162-1.081,1.272,0,2.289,1.018,2.289,2.607v3.624h-1.081v-3.624c0-1.018-.572-1.59-1.399-1.59-.89,0-1.59.699-1.59,1.844v3.37h-1.081v-3.624c0-.954-.636-1.59-1.462-1.59s-1.526.699-1.526,1.844v3.37h-1.081V2.881h0Z"/>
      <path class="cls-1" d="M101.597,2.753c1.717,0,3.116,1.399,3.116,3.179s-1.399,3.18-3.116,3.18-3.115-1.399-3.115-3.18,1.399-3.179,3.115-3.179ZM101.597,8.095c1.145,0,2.035-.89,2.035-2.162s-.89-2.162-2.035-2.162-2.035.89-2.035,2.162.89,2.162,2.035,2.162Z"/>
      <path class="cls-1" d="M105.299,2.881h.699c.318,0,.509-.178.509-.636V.846h1.018v2.035h1.399v1.018h-1.399v3.243c0,.636.318.954.852.954.419,0,.801-.191.801-.191v1.018s-.382.191-.89.191c-1.208,0-1.844-.636-1.844-1.908v-3.306h-1.145v-1.018h0Z"/>
      <path class="cls-1" d="M110.908.21c.381,0,.699.318.699.699s-.318.699-.699.699-.699-.318-.699-.699.318-.699.699-.699ZM111.48,2.881v6.104h-1.081V2.881h1.081Z"/>
      <path class="cls-1" d="M115.817,2.753c1.717,0,3.116,1.399,3.116,3.179s-1.399,3.18-3.116,3.18-3.115-1.399-3.115-3.18,1.399-3.179,3.115-3.179ZM115.817,8.095c1.145,0,2.035-.89,2.035-2.162s-.89-2.162-2.035-2.162-2.035.89-2.035,2.162.89,2.162,2.035,2.162Z"/>
      <path class="cls-1" d="M121.172,2.881v.89s.636-1.018,1.933-1.018c1.437,0,2.454,1.018,2.454,2.671v3.561h-1.081v-3.561c0-1.017-.636-1.653-1.526-1.653-1.018,0-1.78.763-1.78,1.907v3.307h-1.081V2.881h1.081Z"/>
      <path class="cls-1" d="M128.435,5.488l2.289-.382c0-.763-.572-1.335-1.399-1.335-1.017,0-1.653.827-1.653.827l-.699-.699s.826-1.145,2.352-1.145c1.463,0,2.48,1.018,2.48,2.353v3.879h-1.081v-.827s-.636.954-1.971.954c-1.272,0-2.099-.827-2.099-1.78,0-1.018.636-1.653,1.78-1.844h0ZM127.735,7.268c0,.483.407.89,1.145.89,1.018,0,1.844-.826,1.844-1.907v-.254l-1.971.318c-.636.102-1.018.509-1.018.954h0Z"/>
      <path class="cls-1" d="M133.408.083h1.081v8.902h-1.081V.083Z"/>
    </g>
    <g>
      <path class="cls-1" d="M139.432.21h3.434c1.653,0,2.925,1.271,2.925,2.861s-1.272,2.861-2.925,2.861h-2.289v3.179h-1.145V.209h0ZM140.577,1.291v3.561h2.289c1.018,0,1.78-.763,1.78-1.78s-.763-1.78-1.78-1.78h-2.289Z"/>
      <path class="cls-1" d="M147.903,3.008v.827s.636-.954,1.971-.954h.254v1.145s-.191-.064-.445-.064c-1.018,0-1.78.763-1.78,1.908v3.243h-1.081V3.009h1.081Z"/>
      <path class="cls-1" d="M153.576,2.88c1.717,0,3.116,1.399,3.116,3.179s-1.399,3.18-3.116,3.18-3.115-1.399-3.115-3.18,1.399-3.179,3.115-3.179ZM153.576,8.221c1.145,0,2.035-.89,2.035-2.162s-.89-2.162-2.035-2.162-2.035.89-2.035,2.162.89,2.162,2.035,2.162Z"/>
      <path class="cls-1" d="M160.393,2.88c1.463,0,2.099,1.018,2.099,1.018V.21h1.081v8.902h-1.081v-.89s-.661,1.018-2.099,1.018c-1.59,0-2.925-1.335-2.925-3.18s1.335-3.179,2.925-3.179h0ZM160.521,8.221c1.081,0,1.971-.89,1.971-2.162s-.89-2.162-1.971-2.162-1.971.89-1.971,2.162.89,2.162,1.971,2.162Z"/>
      <path class="cls-1" d="M165.176,6.568v-3.561h1.081v3.561c0,1.017.636,1.653,1.526,1.653,1.017,0,1.78-.763,1.78-1.907v-3.307h1.081v6.104h-1.081v-.89s-.636,1.018-1.933,1.018c-1.437,0-2.455-1.018-2.455-2.671h.001Z"/>
      <path class="cls-1" d="M171.804,6.059c0-1.78,1.399-3.179,3.115-3.179,1.653,0,2.544,1.208,2.544,1.208l-.763.763s-.636-.954-1.78-.954c-1.081,0-2.035.954-2.035,2.162s.954,2.162,2.035,2.162c1.145,0,1.844-.954,1.844-.954l.763.699s-.954,1.272-2.607,1.272c-1.717,0-3.115-1.399-3.115-3.18h-.001Z"/>
      <path class="cls-1" d="M177.922,3.008h.699c.318,0,.509-.178.509-.636V.973h1.018v2.035h1.399v1.018h-1.399v3.243c0,.636.318.954.852.954.419,0,.801-.191.801-.191v1.018s-.382.191-.89.191c-1.208,0-1.844-.636-1.844-1.908v-3.306h-1.145v-1.018h0Z"/>
      <path class="cls-1" d="M183.086,7.395s.572.827,1.59.827c.826,0,1.208-.382,1.208-.827,0-1.208-3.243-.699-3.243-2.798,0-.89.826-1.717,2.098-1.717,1.399,0,2.098.827,2.098.827l-.763.763s-.445-.572-1.335-.572c-.699,0-1.017.318-1.017.699,0,1.145,3.243.636,3.243,2.798,0,1.018-.827,1.844-2.289,1.844-1.526,0-2.289-1.081-2.289-1.081l.699-.763Z"/>
    </g>
  </g>
  <g>
    <g>
      <path class="cls-2" d="M24.026,3.773c-.982-.208-1.991-.427-1.991-1.218,0-.872.918-1.055,1.702-1.055.804,0,1.578.176,2.367.536l.071.034c.02.01.044.002.055-.017l.707-1.252c.011-.022.004-.049-.018-.058l-.076-.038c-1.067-.481-2.065-.705-3.14-.705-2.086,0-3.434,1.012-3.434,2.579,0,1.805,1.512,2.367,3.143,2.704,1.027.212,2.025.423,2.025,1.246,0,.889-.987,1.076-1.829,1.076-.889,0-1.782-.26-2.728-.796l-.03-.018c-.021-.012-.048-.004-.058.016l-.734,1.303c-.011.02-.005.045.015.057l.03.018c1.026.594,2.303.934,3.505.934,2.284,0,3.594-.949,3.594-2.603,0-2.069-1.828-2.459-3.177-2.744h0Z"/>
      <path class="cls-2" d="M32.516,7.473c-.006-.02-.03-.035-.055-.026l-.093.036c-.366.142-.618.205-1.146.205-.613,0-1.008-.331-1.008-.843v-3.118h2.184c.023,0,.042-.019.042-.042v-1.264c0-.023-.019-.042-.042-.042h-2.184V.736c0-.023-.019-.042-.042-.042h-1.6c-.023,0-.042.019-.042.042v1.643h-1.306c-.023,0-.042.019-.042.042v1.264c0,.023.019.042.042.042h1.306v3.287c0,1.319.883,2.107,2.361,2.107.858,0,1.36-.179,1.882-.395.034-.014.072-.031.099-.043.02-.009.03-.031.023-.052l-.377-1.158h-.002Z"/>
      <path class="cls-2" d="M14.401.187H2.065C.894.187,0,1.137,0,2.308v6.598c0,.025.02.045.045.045h1.595c.025,0,.045-.02.045-.045V2.209h13.093v6.697c0,.025.02.045.045.045h1.597c.025,0,.045-.02.045-.045V2.308c0-1.171-.894-2.121-2.065-2.121h0Z"/>
      <path class="cls-2" d="M39.994,7.721h-.253c-.314,0-.48-.171-.48-.494v-2.61c0-1.62-.879-2.407-2.689-2.407-.722,0-1.703.069-2.897.61-.02.009-.029.031-.023.051l.395,1.218c.008.024.034.035.056.026.881-.349,1.667-.54,2.217-.54.623,0,1.256.115,1.256.967v.364s-.099.007-2.1.169c-2.001.161-2.295,1.562-2.295,2.13,0,1.128.895,1.915,2.178,1.915.928,0,1.725-.29,2.436-.885h0c.15.314.573.84,1.728.84h.472c.023,0,.042-.019.042-.042v-1.269c0-.023-.019-.042-.042-.042h-.001ZM37.575,7.105c-.744.526-1.269.74-1.81.74-.564,0-.943-.291-.943-.725,0-.184.021-.763.822-.865.801-.103,1.931-.245,1.931-.245v1.096h0Z"/>
      <path class="cls-2" d="M61.668,4.968c-1.081-.19-1.612-.289-1.612-.797,0-.301.143-.7,1.309-.7.351,0,1.139.034,2.056.528l.045.024c.02.01.045.003.056-.016l.626-1.087c.012-.021.005-.047-.018-.059l-.053-.025c-.755-.347-1.479-.634-2.704-.634-1.873,0-2.904.723-2.904,2.035,0,1.493,1.387,1.848,2.688,2.064,1.15.191,1.614.353,1.614.861,0,.462-.446.687-1.398.687-.874,0-1.768-.372-2.366-.685l-.038-.018c-.02-.01-.044-.002-.055.017l-.621,1.098c-.011.021-.005.046.016.058l.037.02c.977.506,2.024.774,3.026.774,1.96,0,2.954-.693,2.954-2.059,0-1.489-1.316-1.85-2.66-2.086h.002Z"/>
      <path class="cls-2" d="M44.469,2.209c-.761,0-1.404.252-2.023.792v-.581c0-.023-.019-.042-.042-.042h-1.601c-.023,0-.042.019-.042.042v9.268c0,.023.019.042.042.042h1.6c.023,0,.042-.019.042-.042v-3.337c.588.489,1.325.77,2.022.77,1.788,0,3.037-1.421,3.037-3.455,0-1.938-1.333-3.455-3.034-3.455v-.002ZM44.048,7.687c-.585,0-1.079-.276-1.603-.894v-2.314c.542-.579,1.036-.837,1.603-.837,1.075,0,1.77.794,1.77,2.023,0,1.21-.711,2.023-1.77,2.023h0Z"/>
      <rect class="cls-2" x="48.413" y=".187" width="1.686" height="8.765" rx=".042" ry=".042"/>
      <path class="cls-2" d="M56.976,7.173c-.012-.02-.037-.027-.057-.016l-.054.03c-.545.286-1.038.575-2.071.575-1.122,0-1.882-.624-2.035-1.668h4.749c.023,0,.042-.019.042-.042v-.459c0-2.087-1.248-3.384-3.257-3.384-1.925,0-3.27,1.441-3.27,3.505,0,2.037,1.454,3.406,3.619,3.406,1.434,0,2.351-.462,2.918-.791l.028-.018c.019-.012.025-.037.014-.057l-.625-1.081h-.001ZM54.305,3.573c.876,0,1.415.456,1.56,1.319h-3.102c.149-.851.697-1.319,1.542-1.319Z"/>
    </g>
    <path class="cls-2" d="M64.809,8.372v.16h.093c.057,0,.09-.036.09-.082,0-.048-.026-.077-.093-.077h-.09ZM65.105,8.441c0,.074-.042.127-.099.152l.13.242h-.119l-.107-.211h-.102v.211h-.102v-.558h.203c.14,0,.197.076.197.164M64.443,8.565c0,.282.198.459.453.459s.453-.177.453-.459-.198-.457-.453-.457c-.253,0-.453.18-.453.457M65.459,8.565c0,.349-.26.566-.563.566s-.563-.217-.563-.566.26-.564.563-.564.563.216.563.564"/>
  </g>
</svg>