<svg width="130" height="32" viewBox="0 0 130 32" fill="none" xmlns="http://www.w3.org/2000/svg">
<path d="M26.5788 23.4657C26.5788 23.4657 28.7891 20.7182 27.8812 16.8049C27.0145 13.7265 24.2429 11.4688 20.9672 11.4688C18.8252 11.4688 16.9025 12.4397 15.5841 13.9695C15.324 14.2704 15.0893 14.593 14.879 14.9348C14.1816 16.0716 13.772 17.4106 13.772 18.8506C13.772 19.8 13.5019 20.6779 13.0603 21.441C12.1913 22.9413 10.6128 23.9611 8.79079 23.9611C6.04446 23.9611 3.80954 21.6682 3.80954 18.8506C3.80954 16.033 6.04446 13.7401 8.79079 13.7401C10.6128 13.7401 12.1913 14.7599 13.0603 16.2601C13.3171 15.4345 13.6968 14.6645 14.1738 13.9695C12.8555 12.4397 10.9338 11.4688 8.79079 11.4688C4.8235 11.4688 1.59566 14.7804 1.59566 18.8506C1.59566 22.9208 4.8235 26.2324 8.79079 26.2324C10.9338 26.2324 12.8555 25.2626 14.1738 23.7317C14.434 23.4307 14.6698 23.1082 14.879 22.7664C15.5763 21.6296 15.9859 20.2906 15.9859 18.8506C15.9859 17.9012 16.256 17.0233 16.6977 16.2601C17.5666 14.7599 19.1462 13.7401 20.9672 13.7401C23.7135 13.7401 25.9484 16.033 25.9484 18.8506C25.9484 21.6682 23.7135 23.9611 20.9672 23.9611C19.1462 23.9611 17.5666 22.9413 16.6977 21.441C16.4409 22.2667 16.0612 23.0366 15.5841 23.7317C16.9025 25.2626 18.8252 26.2324 20.9672 26.2324C23.2338 26.2324 25.259 25.1515 26.5788 23.4657Z" fill="white"/>
<path d="M10.5863 10.4903C9.64142 10.2075 8.47339 10.2571 8.08398 10.3097C10.5863 4.25354 18.3565 4.25354 20.6963 10.3097C19.8205 10.2407 19.1725 10.2407 18.3565 10.4903C16.8709 7.26171 11.7492 7.26171 10.5863 10.4903Z" fill="white"/>
<path fill-rule="evenodd" clip-rule="evenodd" d="M46.2339 9.04883H48.8635V22.9503H45.8862V14.708L42.3656 20.663H40.1923L36.6717 14.7869V22.9503H33.6943V9.04883H36.3674L41.3007 17.5475L46.2339 9.04883ZM63.6416 22.9503L62.1855 19.8742H55.0573L53.6012 22.9503H50.1892L57.2305 9.04883H59.9471L66.9883 22.9503H63.6416ZM56.1656 17.5475H61.0771L58.6214 12.3418L56.1656 17.5475ZM78.3978 9.04883H81.5708V22.9503H79.0498L71.4217 14.0967V22.9503H68.2706V9.04883H70.7698L78.3978 17.863V9.04883ZM88.1557 22.9503V11.5531H83.3528V9.04883H96.3488V11.5531H91.5459V22.9503H88.1557ZM111.431 22.9503H107.737L105.085 18.5137C104.868 18.1719 104.607 17.9254 104.303 17.7742C103.999 17.623 103.615 17.5475 103.151 17.5475H101.478V22.9503H98.1308V9.04883H105.172C106.969 9.04883 108.327 9.40704 109.247 10.1235C110.167 10.8399 110.627 11.8751 110.627 13.2291C110.627 14.2808 110.305 15.1615 109.66 15.8714C109.015 16.5813 108.106 17.0479 106.932 17.2714C107.729 17.4554 108.403 17.9747 108.954 18.8292L111.431 22.9503ZM104.672 15.2207C105.643 15.2207 106.346 15.0662 106.78 14.7573C107.215 14.4484 107.432 13.9653 107.432 13.308C107.432 12.6376 107.215 12.1512 106.78 11.8488C106.346 11.5465 105.643 11.3953 104.672 11.3953H101.434V15.2207H104.672ZM125.057 22.9503L123.601 19.8742H116.473L115.017 22.9503H111.605L118.646 9.04883H121.363L128.404 22.9503H125.057ZM117.581 17.5475H122.493L120.037 12.3418L117.581 17.5475Z" fill="white"/>
</svg>
