<svg xmlns="http://www.w3.org/2000/svg" xmlns:xlink="http://www.w3.org/1999/xlink" width="381" height="96" viewBox="0 0 381 96"><defs><path id="a" d="M0 0h379.218v61.303H0z"></path><path id="c" d="M0 0h27.535v19.537H0z"></path><path id="e" d="M0 0h40.846v19.212H0z"></path><path id="g" d="M0 0h32.07v19.59H0z"></path></defs><g fill="none" fill-rule="evenodd"><path d="M16.667 62.864a37.924 37.924 0 01-3.548-16.042c0-21.043 17.118-38.163 38.161-38.163 21.042 0 38.163 17.12 38.163 38.163a37.91 37.91 0 01-3.245 15.371c2.148.05 4.25.109 6.314.174a43.836 43.836 0 002.84-15.545c0-24.301-19.771-44.071-44.072-44.071-24.299 0-44.07 19.77-44.07 44.071 0 5.76 1.122 11.259 3.14 16.307a981.37 981.37 0 016.317-.265M79.6 72.372c-6.989 7.739-17.095 12.612-28.32 12.612-10.836 0-20.624-4.547-27.578-11.825a81.554 81.554 0 00-9.59-2.702C21.945 82.73 35.673 90.893 51.28 90.893c15.331 0 28.852-7.872 36.75-19.783a359.54 359.54 0 00-8.43 1.262M380.308 19.046c0 1.343-1.047 2.442-2.435 2.442-1.381 0-2.421-1.085-2.421-2.427v-.015c0-1.343 1.048-2.443 2.437-2.443 1.38 0 2.419 1.085 2.419 2.427v.016zm-2.419-2.747a2.753 2.753 0 00-2.755 2.747v.015a2.726 2.726 0 002.739 2.731 2.752 2.752 0 002.754-2.746v-.016a2.726 2.726 0 00-2.738-2.731z" fill="#4B6D7F"></path><g transform="translate(.06 17.506)"><mask id="b" fill="#fff"><use xlink:href="#a"></use></mask><path d="M378.481 1.009c0 .243-.175.417-.501.417h-.645V.568h.631c.318 0 .515.145.515.425v.016zm.653-.037V.955a.865.865 0 00-.244-.636c-.205-.205-.508-.319-.903-.319h-1.297v2.921h.645V1.98h.509l.622.941h.752l-.714-1.048c.372-.136.63-.433.63-.901z" fill="#4B6D7F" mask="url(#b)"></path><path d="M-.06 48.58c16.29 1.094 30.698 5.886 39.811 12.723C45.99 59.14 80.96 49.912 117.625 48.58c-44.084-3.561-108.331-.771-117.685 0" fill="#ECA52C" mask="url(#b)"></path></g><path d="M152.878 15.445c-5.555 0-7.906 2.051-12.425 5.469l.677-4.615h-9.058l-6.732 45.976h9.571l5.281-36.062c2.46-1.624 4.527-2.906 6.578-2.906 2.052 0 3.268 1.025 2.931 3.333l-5.217 35.635h9.572l5.442-37.173c.876-5.982-1.578-9.657-6.62-9.657M175.636 30.826c.775-5.297 2.981-7.519 6.4-7.519 3.418 0 4.974 2.222 4.198 7.519l-.35 2.394h-10.599l.351-2.394zm.57 32.304c10.684 0 15.676-6.666 17.273-16.407h-9.572l-.15 1.024c-.775 5.299-2.981 7.52-6.399 7.52-3.419 0-4.974-2.221-4.2-7.52l.976-6.665h20.171l1.252-8.546c1.475-10.084-1.43-17.091-12.37-17.091s-15.897 7.007-17.372 17.091l-1.977 13.503c-1.477 10.083 1.429 17.091 12.368 17.091zM218.694 3.908h-9.572l-1.813 12.391h-5.3l-1.151 7.863h5.298l-4.19 28.627c-1.025 7.008 2.502 10.341 9.682 10.341 2.393 0 3.529-.172 4.861-.513l1.201-8.204h-3.162c-2.223 0-3.048-1.367-2.697-3.761l3.877-26.49h6.41l1.152-7.863h-6.41l1.814-12.391M249.379 33.22l.959 29.055h7.693l17.328-45.976h-9.23l-9.418 28.714h-.172l-.935-28.627h-7.094l-10.26 28.627h-.171l.017-28.714h-9.231l2.158 45.976h7.692l10.493-29.055h.171M296.703 30.826l-2.476 16.921c-.776 5.299-2.982 7.52-6.401 7.52-3.418 0-4.972-2.221-4.197-7.52l2.478-16.921c.775-5.297 2.98-7.519 6.399-7.519 3.418 0 4.974 2.222 4.197 7.519zm-3.046-15.381c-10.939 0-15.897 7.007-17.373 17.091l-1.976 13.503c-1.478 10.083 1.429 17.091 12.368 17.091s15.897-7.008 17.373-17.091l1.978-13.503c1.475-10.084-1.43-17.091-12.37-17.091zM330.589 24.503c2.82 0 4.368.514 6.016.94l1.463-9.998h-1.965c-4.53 0-8.886 2.308-11.769 6.238h-.17l.788-5.384h-9.144l-6.732 45.976h9.572l4.63-31.62c.6-4.101 4.064-6.152 7.311-6.152M363.643 16.299l-12.89 16.237h-.171L355.261.575h-9.571l-9.034 61.7h9.572l2.352-16.066 5.519-6.751h.171l4.351 22.817h9.658l-6.507-31.449L373.9 16.299h-10.257M137.998 86.201c0 3.051-2.078 4.779-5.236 4.779h-2.133v-9.637h2.133c3.158 0 5.236 1.781 5.236 4.805v.053zm-5.291-9.473h-7.314v18.894h7.207c6.775 0 10.743-4.049 10.743-9.502v-.054c0-5.452-3.914-9.338-10.636-9.338z" fill="#4B6D7F"></path><g transform="translate(149.855 76.403)"><mask id="d" fill="#fff"><use xlink:href="#c"></use></mask><path fill="#4B6D7F" mask="url(#d)" d="M0 19.219h5.236V.325H0zM20.517 7.451c-2.645-.594-3.294-.972-3.294-1.836v-.054c0-.702.621-1.215 1.89-1.215 1.674 0 3.563.621 5.291 1.862l2.618-3.698C24.97.864 22.461 0 19.249 0c-4.535 0-7.316 2.538-7.316 6.046v.055c0 3.859 3.105 4.993 7.126 5.911 2.592.621 3.212 1.026 3.212 1.836v.054c0 .809-.756 1.296-2.186 1.296-2.187 0-4.238-.784-6.127-2.268l-2.915 3.481c2.348 2.08 5.506 3.132 8.853 3.132 4.589 0 7.639-2.295 7.639-6.154v-.055c0-3.536-2.699-4.939-7.018-5.883"></path></g><path fill="#4B6D7F" d="M182.686 81.315h5.641v14.307h5.238V81.315h5.668v-4.587h-16.547v4.587M216.837 83.557c0 1.376-1.053 2.24-2.806 2.24h-3.483v-4.562h3.455c1.728 0 2.834.755 2.834 2.267v.055zm5.237-.352v-.054c0-1.862-.567-3.293-1.673-4.399-1.269-1.269-3.267-2.024-6.155-2.024h-8.934v18.894h5.236v-5.723h2.321l3.806 5.723h6.02l-4.508-6.586c2.348-.999 3.887-2.916 3.887-5.831zM229.044 95.622h5.237V76.728h-5.237z"></path><g transform="translate(241.924 76.728)"><mask id="f" fill="#fff"><use xlink:href="#e"></use></mask><path d="M11.66 12.956c0 1.106-.89 1.727-2.51 1.727H5.102v-3.482h3.995c1.754 0 2.563.675 2.563 1.701v.054zM5.102 4.21h3.427c1.539 0 2.376.567 2.376 1.62v.053c0 1.107-.918 1.647-2.51 1.647H5.102V4.21zm8.044 4.805c1.672-.729 2.915-2.025 2.915-4.211V4.75c0-1.295-.459-2.294-1.215-3.078C13.739.593 12.066 0 9.691 0H0v18.894h9.744c4.508 0 7.154-1.971 7.154-5.21v-.054c0-2.564-1.458-3.86-3.752-4.615zM35.555 10.634c0 2.646-1.377 3.887-3.509 3.887-2.105 0-3.482-1.296-3.482-4.021V0h-5.29v10.607c0 5.912 3.374 8.638 8.718 8.638 5.371 0 8.854-2.699 8.854-8.773V0h-5.291v10.634" fill="#4B6D7F" mask="url(#f)"></path></g><path fill="#4B6D7F" d="M289.038 81.315h5.642v14.307h5.237V81.315h5.668v-4.587h-16.547v4.587"></path><g transform="translate(311.799 76.35)"><mask id="h" fill="#fff"><use xlink:href="#g"></use></mask><path fill="#4B6D7F" mask="url(#h)" d="M0 19.272h5.236V.378H0zM26.699 9.879c0 2.726-1.917 5.047-4.778 5.047-2.888 0-4.858-2.376-4.858-5.101V9.77c0-2.725 1.916-5.047 4.804-5.047 2.888 0 4.832 2.348 4.832 5.102v.054zM21.921 0c-5.83 0-10.203 4.399-10.203 9.825v.054c0 5.425 4.318 9.771 10.149 9.771 5.83 0 10.203-4.399 10.203-9.825V9.77C32.07 4.345 27.752 0 21.921 0z"></path></g><path fill="#4B6D7F" d="M363.014 86.715l-7.774-9.987h-4.885v18.894h5.182V85.257l8.098 10.365h4.562V76.728h-5.183v9.987M48.601 27.947c2.355-1.555 4.336-2.782 6.3-2.782 1.964 0 3.129.981 2.805 3.191L52.78 62.005c3.009-.029 6.075-.047 9.174-.053l5.134-35.069c.84-5.729-1.511-9.248-6.339-9.248-5.318 0-7.571 1.965-11.895 5.238l.646-4.419h-8.676l-6.421 43.861c2.955-.071 6.03-.133 9.193-.187l5.005-34.181"></path></g></svg>